<svg xmlns="http://www.w3.org/2000/svg" width="512" height="512" viewBox="0 0 256 256"><g fill="none" stroke-miterlimit="10" font-family="none" font-weight="none" font-size="none" text-anchor="none" style="mix-blend-mode:normal"><path d="M72.802 209.937h39.765c6.117 0 11.075 4.958 11.075 11.074h-50.84zM20.62 54.953h194.651v8.713H20.62zM20.62 158.644h109.685c5.87 0 10.628 4.759 10.628 10.629H20.62z" fill-opacity=".102" fill="#393e41"/><path d="M235.686 201.61l-37.093-59.983a14.79 14.79 0 00-25.159 0l-37.09 59.978a14.79 14.79 0 0012.568 22.597h74.203a14.79 14.79 0 0012.57-22.592z" fill="#fff"/><path d="M140.8 83.724a3.5 3.5 0 00-3.5 3.5v14.914a3.5 3.5 0 003.5 3.5h13.56v11.414a3.5 3.5 0 007 0V87.224a3.5 3.5 0 00-7 0v11.414H144.3V87.224a3.5 3.5 0 00-3.5-3.5zM75.971 83.724a3.5 3.5 0 00-3.5 3.5v14.914a3.5 3.5 0 003.5 3.5h13.56v11.414a3.5 3.5 0 007 0V87.224a3.5 3.5 0 00-7 0v11.414H79.47V87.224a3.5 3.5 0 00-3.5-3.5zM125.459 122.362a3.5 3.5 0 003.5-3.5V87.224a3.5 3.5 0 00-3.5-3.5h-17.06a3.5 3.5 0 00-3.5 3.5v31.638a3.5 3.5 0 003.5 3.5zm-13.56-31.638h10.06v24.638h-10.06zM37.04 54.952a4.579 4.579 0 10.008-9.157 4.579 4.579 0 00-.008 9.157zM67.066 54.952a4.579 4.579 0 10.007-9.157 4.579 4.579 0 00-.007 9.157zM52.015 54.952l.038-.002.039.002a4.579 4.579 0 100-9.157l-.039.002-.038-.002a4.579 4.579 0 100 9.157z" fill="#e94f37"/><path d="M163.733 135.909a4.575 4.575 0 10-4.575 4.579 4.582 4.582 0 004.575-4.58zM139.531 135.909a4.575 4.575 0 104.576-4.579 4.582 4.582 0 00-4.575 4.579z" fill="#b63530"/><path d="M237.668 202.496l-38.574-62.376a15.38 15.38 0 00-26.162 0l-38.57 62.371c-6.363 10.256 1 23.499 13.07 23.499h77.164c12.067 0 19.43-13.238 13.072-23.494zm-13.072 15.494H147.43a7.382 7.382 0 01-6.267-11.286l38.573-62.377a7.37 7.37 0 0112.553 0l38.574 62.377.003.005a7.383 7.383 0 01-6.271 11.28z" fill="#e94f37"/><path d="M140.933 175.204a4 4 0 100-8H27.48a3.49 3.49 0 01-3.485-3.488V69.308h187.678v78.871a4 4 0 108 0V41.5c-.006-6.342-5.144-11.48-11.485-11.489H27.48c-6.34.008-11.478 5.147-11.485 11.488v122.218c.007 6.34 5.145 11.48 11.485 11.488h75.935v14.852H78.242c-6.071.008-10.991 4.928-10.997 11v20.866a4 4 0 004 4h52.078a4 4 0 100-8H75.245v-16.866a3.002 3.002 0 012.997-3h48.174a4 4 0 004-4v-18.852zM27.48 38.01h180.708a3.49 3.49 0 013.485 3.488v19.81H23.995v-19.81a3.49 3.49 0 013.485-3.488zm94.936 152.046h-11v-14.852h11z" fill="#e94f37"/><path d="M186.013 200.197a4.586 4.586 0 10-.007 9.172 4.586 4.586 0 00.007-9.172zM185.891 192.012a4 4 0 004-4v-29.048a4 4 0 10-8 0v29.048a4 4 0 004 4z" fill="#393e41"/><path d="M54.822 132.37a3.5 3.5 0 00-.002 7l75.796.039h.002a3.5 3.5 0 00.002-7l-75.796-.04zM54.822 154.07h98.295a3.5 3.5 0 000-7H54.822a3.5 3.5 0 000 7z" fill="#e94f37"/></g></svg>