<svg version="1.1" xmlns="http://www.w3.org/2000/svg" xmlns:xlink="http://www.w3.org/1999/xlink" width="48px" height="48px" viewBox="0,0,256,256"><g fill="none" fill-rule="nonzero" stroke="none" stroke-width="1" stroke-linecap="butt" stroke-linejoin="miter" stroke-miterlimit="10" stroke-dasharray="" stroke-dashoffset="0" font-family="none" font-weight="none" font-size="none" text-anchor="none" style="mix-blend-mode: normal"><g transform="scale(5.33333,5.33333)"><path d="M27,40c0,1.7 -1.3,3 -3,3c-1.7,0 -3,-1.3 -3,-3c0,-1.7 1.3,-3 3,-3c1.7,0 3,1.3 3,3zM2,18.9l3.6,3.6c10.3,-9.9 26.6,-9.9 36.9,0l3.6,-3.6c-12.3,-11.9 -31.9,-11.9 -44.1,0z" fill="#e94f37"></path><path d="M8.4,25.3l3.6,3.6c6.8,-6.4 17.4,-6.4 24.1,0l3.6,-3.6c-8.8,-8.4 -22.6,-8.4 -31.3,0z" fill="#e94f37"></path><path d="M14.8,31.7l3.6,3.6c3.2,-2.9 8.1,-2.9 11.3,0l3.5,-3.6c-5.2,-4.8 -13.2,-4.8 -18.4,0z" fill="#e94f37"></path><path transform="translate(-9.94113,24.00059) rotate(-45.001)" d="M22,-2.9h4v53.7h-4z" fill="#393e41"></path></g></g></svg>