<svg width="278" height="41" fill="none" xmlns="http://www.w3.org/2000/svg"><g clip-path="url(#prefix__clip0_330_7)"><path d="M.645 41V4.067h12.08V41H.644zm14.028-29.558V4.067h13.804l7.376 7.375v12.664l-7.376 7.403H14.673v-7.403h8.934V11.442h-8.934zM63.25 41V18.818H45.744v-3.674l3.702-3.702h18.453l7.375 7.376V41H63.251zm-1.949-17.2v5.12h-6.345v5.178h6.345v3.256L57.63 41H48.22l-4.954-4.87v-7.404l4.954-4.926h13.081zm41.899-4.982h-5.233v-3.229l4.119-4.147h7.459l5.984 6.903v7.654h-12.329v-7.181zM83.691 41V11.442h12.301V41H83.69zm50.776 0h-12.301V.17h12.301V41zm1.921-4.175V19.96l5.677-8.461 12.72-.028-18.397 25.355zM155.425 41h-13.36l-2.031-5.956 7.264-9.797L155.425 41z" fill="#E94F37"/><path d="M182.349 21.563h6.213v7.724h-6.213v-7.724zM222.79 9.109V41h-9.804V9.108h9.804zm-11.172 2.45l-.484-7.238h15.874l.485 7.239h-15.875zm-1.054-7.238h13.594l.513 7.239h-13.594l-.513-7.24zM187.45 16.69a10.71 10.71 0 01-.598-2.138c-.133-.779-.2-1.53-.2-2.252 0-2.888.95-5.082 2.85-6.583 1.919-1.52 4.75-2.28 8.493-2.28 3.838 0 6.717.893 8.636 2.679 1.919 1.786 2.878 4.494 2.878 8.123v1.196c0 3.763-1.187 6.565-3.562 8.408-2.356 1.824-6.033 2.736-11.03 2.736h-4.531l-3.848-6.726h5.216c2.223 0 3.961-.18 5.215-.542 1.254-.36 2.138-.902 2.651-1.624.532-.741.798-1.663.798-2.765v-.769c0-1.197-.19-2.033-.57-2.508-.38-.494-.988-.741-1.824-.741-.912 0-1.549.238-1.91.713-.361.474-.541 1.244-.541 2.308v2.764h-8.123zm-1.225 7.865c0-.683.019-1.405.057-2.165.057-.78.142-1.625.256-2.537l9.177 2.194v3.848c0 1.482.637 2.546 1.91 3.192 1.292.646 3.363.969 6.213.969 2.622 0 4.712-.38 6.27-1.14 1.577-.779 2.593-1.91 3.049-3.392l.513 5.985h-.997a8.735 8.735 0 01-1.938 3.477c-.912.989-2.166 1.758-3.762 2.309-1.596.551-3.601.826-6.014.826-4.807 0-8.464-1.111-10.972-3.334-2.508-2.242-3.762-5.595-3.762-10.06v-.172zm-1.254-12.995h-27.246l-.513-7.24h27.246l.513 7.24zM181.095 41h-11.97l-5.957-11.4-3.021-.314v-7.98l9.776 1.938v4.047a18.1 18.1 0 013.021 1.995c.874.703 1.672 1.511 2.394 2.423a31.8 31.8 0 012.251 3.192l3.506 5.757V41zm-4.361-31.037c.969.932 1.653 1.986 2.052 3.164.418 1.159.627 2.546.627 4.161v.513c0 3.496-.902 6.128-2.707 7.895-1.805 1.766-4.75 2.773-8.835 3.02l-2.879.171-4.845-7.58h2.337c2.622 0 4.418-.4 5.387-1.197.969-.817 1.453-2.119 1.453-3.905v-.399c0-1.349-.218-2.47-.655-3.363-.437-.912-1.235-1.739-2.394-2.48h10.459zm7.239 19.324h-5.899l-1.368-7.724h7.267v7.724zM273.27 9.108V41h-9.804V9.108h9.804zm-11.172 2.45l-.513-7.238h15.875l.513 7.239h-15.875zm-31.264 0l-.513-7.238h44.289l.513 7.239h-44.289zm14.535 4.304c2.413 0 4.284.418 5.614 1.254 1.33.817 2.242 1.995 2.736 3.534h.257c.38-1.52 1.14-2.689 2.28-3.506 1.159-.817 2.527-1.225 4.104-1.225.874 0 1.624.104 2.251.313.646.19 1.178.494 1.596.912l-.484 8.636c-.171-.608-.447-1.064-.827-1.368-.361-.323-.874-.485-1.539-.485-.798 0-1.425.276-1.881.827-.456.551-.712 1.539-.769 2.964l-.228 6.014h-8.75l-.256-6.014c-.057-1.368-.285-2.347-.684-2.936-.399-.588-1.083-.883-2.052-.883-.969 0-1.701.352-2.195 1.055-.475.684-.712 1.662-.712 2.935 0 2.071.513 4.123 1.539 6.156 1.045 2.014 2.384 4.285 4.018 6.812V41h-10.83c-1.482-2.242-2.66-4.417-3.534-6.526-.855-2.128-1.282-4.522-1.282-7.182 0-3.687 1.016-6.508 3.049-8.465 2.033-1.976 4.893-2.964 8.579-2.964z" fill="#393E41"/></g><defs><clipPath id="prefix__clip0_330_7"><rect width="278" height="41" rx="5" fill="#fff"/></clipPath></defs></svg>