<svg version="1.1" xmlns="http://www.w3.org/2000/svg" xmlns:xlink="http://www.w3.org/1999/xlink" width="48" height="48" viewBox="0,0,256,256"><g fill="none" fill-rule="nonzero" stroke="none" stroke-width="none" stroke-linecap="none" stroke-linejoin="none" stroke-miterlimit="10" stroke-dasharray="" stroke-dashoffset="0" font-family="none" font-weight="none" font-size="none" text-anchor="none" style="mix-blend-mode: normal"><g transform="scale(5.33333,5.33333)"><g><path d="M38,25l7.941,15h-15.882z" fill="none" stroke="#e94f37" stroke-width="2" stroke-linecap="round" stroke-linejoin="round"></path><path d="M38,25l7.941,15h-15.882z" fill="#ff8263" stroke="none" stroke-width="1" stroke-linecap="butt" stroke-linejoin="miter"></path><rect x="1" y="13.5" width="16" height="2" rx="0.979" ry="0" fill="#e94f37" stroke="none" stroke-width="1" stroke-linecap="butt" stroke-linejoin="miter"></rect><rect x="2" y="5" width="14" height="24" rx="5" ry="0" fill="#e94f37" stroke="none" stroke-width="1" stroke-linecap="butt" stroke-linejoin="miter"></rect><path d="M14,9.5v3c-1.2831,-1.27776 -3.0192,-1.99664 -4.83,-2h-0.34c-1.8108,0.00336 -3.5469,0.72224 -4.83,2v-3c0,-1.65685 1.34315,-3 3,-3h4c1.65685,0 3,1.34315 3,3z" fill="#ff8263" stroke="none" stroke-width="1" stroke-linecap="butt" stroke-linejoin="miter"></path><path d="M13,13.13l-0.336,0.67l-0.611,1.2h-6.106l-0.611,-1.2l-0.336,-0.67c1.14008,-0.73767 2.46908,-1.13009 3.827,-1.13h0.346c1.35792,-0.00009 2.68692,0.39233 3.827,1.13z" fill="#ffb491" stroke="none" stroke-width="1" stroke-linecap="butt" stroke-linejoin="miter"></path><path d="M13,25.87l-0.336,-0.67l-0.611,-1.2l-0.014,0.014c-0.65385,0.63333 -1.52871,0.98701 -2.439,0.986h-1.2c-0.91745,0.00118 -1.79868,-0.35792 -2.454,-1v0l-0.611,1.2l-0.335,0.67c1.14008,0.73767 2.46908,1.13009 3.827,1.13h0.346c1.35792,0.00009 2.68692,-0.39233 3.827,-1.13z" fill="#ffb491" stroke="none" stroke-width="1" stroke-linecap="butt" stroke-linejoin="miter"></path><path d="M4,16.5v8l1.323,-1.985c0.16623,-0.24951 0.43564,-0.41128 0.734,-0.44073c0.29836,-0.02945 0.5942,0.07653 0.806,0.28873l0.431,0.431c0.4524,0.45247 1.06616,0.70646 1.706,0.706v0c0.63776,-0.00113 1.24907,-0.255 1.7,-0.706l0.431,-0.431c0.2118,-0.2122 0.50763,-0.31818 0.806,-0.28873c0.29836,0.02945 0.56777,0.19121 0.734,0.44073l1.329,1.985v-8l-1.293,1.293c-0.3905,0.39038 -1.0235,0.39038 -1.414,0l-1.05,-1.05c-0.1557,-0.15564 -0.36685,-0.24305 -0.587,-0.243h-1.312c-0.22015,-0.00005 -0.4313,0.08736 -0.587,0.243l-1.05,1.05c-0.3905,0.39038 -1.0235,0.39038 -1.414,0z" fill="#ff8263" stroke="none" stroke-width="1" stroke-linecap="butt" stroke-linejoin="miter"></path><path d="M19.972,26c0.00104,1.98291 -1.16276,3.78147 -2.972,4.593" fill="none" stroke="#e94f37" stroke-width="2" stroke-linecap="butt" stroke-linejoin="miter"></path><path d="M23.986,26c0.00203,3.59899 -2.12775,6.85746 -5.425,8.3" fill="none" stroke="#ff8263" stroke-width="2" stroke-linecap="butt" stroke-linejoin="miter"></path><path d="M28,26c0.0033,5.2077 -3.08322,9.92114 -7.858,12" fill="none" stroke="#ffb491" stroke-width="2" stroke-linecap="butt" stroke-linejoin="miter"></path></g></g></g></svg>