<svg width="854" height="854" viewBox="0 0 854 854" fill="none" xmlns="http://www.w3.org/2000/svg">
<path d="M644.288 195.605C643.459 195.961 643.104 229.246 643.104 292.501V388.923H672.125H701.146L701.265 382.645C701.62 344.266 701.146 196.671 700.673 196.198C699.962 195.487 646.302 195.013 644.288 195.605Z" fill="black"/>
<path d="M67.3525 219.415C67.2341 226.404 67.2341 382.764 67.3525 386.199L67.471 388.923H95.9002H124.329V301.504V214.085L95.9002 213.966L67.471 213.848L67.3525 219.415Z" fill="black"/>
<path d="M133.719 231.379V248.91H152.435C162.622 248.91 172.098 249.028 173.52 249.028C175.889 249.147 176.007 249.502 175.77 278.405C175.652 294.634 175.415 308.019 175.296 308.374C175.296 308.73 165.82 308.967 154.448 308.967L133.719 308.848V326.379V343.911H166.412H199.106L216.519 326.379L233.932 308.73V278.642L233.813 248.555L217.348 232.208C208.345 223.205 200.053 215.506 198.987 214.914C197.921 214.44 182.878 213.966 165.465 213.966H133.719V231.379Z" fill="black"/>
<path d="M289.896 257.557L280.656 266.56V275.089V283.499L286.934 283.617C290.251 283.617 308.967 283.617 328.394 283.617H363.575V288C363.693 290.369 363.693 314.06 363.693 340.712V388.923L392.359 388.686L420.907 388.331V336.211V283.973L403.376 266.441L385.963 248.91L342.49 248.673L299.017 248.555L289.896 257.557Z" fill="black"/>
<path d="M461.107 249.029C460.87 249.266 460.633 280.893 460.633 319.272V388.924H489.654C512.042 388.924 518.676 388.568 518.794 387.384C519.268 378.618 518.794 250.095 518.32 249.503C517.491 248.673 461.936 248.2 461.107 249.029Z" fill="black"/>
<path d="M549.131 249.031C548.42 249.268 543.326 253.769 537.996 258.981L528.164 268.694V276.038C528.164 280.184 528.519 283.501 529.112 283.619C529.586 283.619 535.153 283.738 541.549 283.738L553.04 283.856V300.914V317.853L582.298 317.616L611.675 317.261V299.492V281.724L608.121 277.578C606.226 275.328 604.094 272.84 603.383 272.129C602.791 271.419 599.237 267.51 595.683 263.364C592.13 259.218 587.747 254.243 586.089 252.347L583.009 248.794L566.899 248.675C557.896 248.557 549.96 248.794 549.131 249.031Z" fill="black"/>
<path d="M760.375 249.15L736.684 249.742L723.417 269.879L710.031 290.017L710.15 328.159C710.15 349.244 710.624 366.538 711.216 366.657C711.69 366.894 713.822 364.643 715.836 361.682C717.849 358.72 723.298 351.258 727.799 345.098C732.419 338.938 737.039 332.542 738.105 330.883C740.237 327.922 755.044 307.429 775.181 279.83C781.104 271.775 786.672 264.075 787.619 262.654C788.567 261.232 791.173 257.679 793.187 254.717L797.096 249.387L790.462 248.913C786.908 248.795 773.286 248.795 760.375 249.15Z" fill="black"/>
<path d="M281.024 319.035L269.06 330.644V348.175L268.941 365.588L280.787 377.315L292.514 388.923H314.902H337.171L345.937 380.276L354.703 371.511L354.584 365.114C354.466 361.56 354.229 358.125 354.229 357.414C354.111 356.704 348.899 356.23 339.659 356.23H325.089L324.734 343.911L324.378 331.473L337.764 331.71C345.108 331.71 351.978 331.591 352.926 331.354C354.347 330.999 354.703 328.748 354.466 319.983C354.466 313.942 354.347 308.611 354.229 308.137C354.111 307.664 340.37 307.308 323.431 307.427H292.869L281.024 319.035Z" fill="black"/>
<path d="M754.215 324.72C750.424 329.814 742.962 340.001 737.513 347.227L727.562 360.612L732.419 374.708L737.276 388.923H768.903H800.531L791.173 370.799C786.079 360.968 777.669 344.502 772.457 334.434C767.245 324.365 762.625 316.073 762.033 315.836C761.441 315.599 757.887 319.627 754.215 324.72Z" fill="black"/>
<path d="M229.682 481.437C208.124 483.214 195.094 490.558 188.342 505.009C185.736 510.577 185.262 513.064 185.38 522.777C185.38 528.937 186.091 536.281 186.802 539.006L188.223 543.981L207.531 543.744L226.721 543.507L226.84 539.361C226.958 537.11 227.076 532.491 227.195 529.174C227.313 521.711 229.801 518.276 235.842 516.973C241.409 515.67 247.569 518.513 248.754 522.777C250.531 529.411 249.82 540.901 247.332 545.994C242.712 555.708 231.815 558.669 201.253 558.669C184.67 558.669 183.485 559.024 183.485 563.881C183.485 566.961 184.077 566.842 163.348 566.842C146.527 566.724 147.712 566.961 149.015 564.473C149.725 563.17 150.081 555.471 149.844 546.942C149.607 534.623 149.015 530.477 147.001 525.62L144.513 519.461H158.373C165.954 519.461 173.179 519.461 174.482 519.342C176.496 519.224 176.615 518.395 175.785 506.431C175.312 499.442 174.838 491.861 174.719 489.61L174.482 485.464L113.241 485.227L52 484.99V502.166C52 514.959 52.3554 519.224 53.5399 519.342C54.2506 519.342 64.5562 519.579 76.1648 519.579L97.3682 519.816L99.8558 524.554C101.87 528.345 102.343 531.425 102.343 540.19C102.343 550.377 101.988 551.443 98.7897 556.063C93.6961 563.289 87.418 565.184 68.9391 565.539L59.1073 565.658V584.492C59.1073 594.798 59.4627 603.326 60.0549 603.445C60.5288 603.445 63.4901 603.8 66.8069 604.037C70.0052 604.393 73.085 604.985 73.4403 605.459C73.9142 605.932 78.6524 614.816 84.1013 625.24C89.4318 635.664 95.5914 647.391 97.6052 651.3L101.396 658.408L130.18 658.763C154.937 659 158.846 658.763 158.254 657.342C157.899 656.394 154.345 650.471 150.436 644.193C146.409 637.915 143.21 632.348 143.21 631.637C143.21 631.045 142.855 630.571 142.263 630.571C141.789 630.571 140.723 629.031 139.894 627.254C137.761 622.279 124.968 607.591 118.927 602.971C113.833 599.062 113.241 597.404 117.032 597.404C119.993 597.404 132.786 590.889 136.695 587.335L140.249 584.137L141.67 590.533C142.5 593.969 143.329 598.114 143.566 599.773L144.04 602.734L164.414 603.326L184.906 603.919L187.749 610.907C194.62 627.728 208.953 638.744 229.682 643.127C239.277 645.141 257.164 645.733 267.588 644.43C286.304 641.943 299.452 633.532 305.612 620.028C307.152 616.712 308.692 613.987 309.047 613.987C309.403 613.987 309.64 623.937 309.64 636.138V658.408L332.857 658.763L355.955 659V590.178C355.837 552.391 356.074 521.001 356.429 520.408C356.785 519.934 359.391 519.461 362.352 519.461C375.027 519.461 379.054 519.224 378.58 518.276C378.106 517.565 376.33 494.941 376.211 487.596L376.093 484.99H337.24H298.268L299.097 498.257C299.571 505.602 299.926 513.064 300.045 514.841C300.282 518.75 302.177 520.29 306.204 519.461C307.744 519.224 309.047 519.461 309.166 519.934C309.166 520.527 309.403 535.926 309.403 554.049C309.64 590.415 309.521 591.126 302.532 597.285C294.951 603.919 282.987 606.999 265.219 606.88C246.74 606.88 238.33 604.748 232.407 598.944C225.892 592.31 226.84 590.77 238.33 589.941C266.522 587.809 283.343 577.148 290.094 557.129C293.411 547.534 293.885 525.028 290.924 514.13C284.409 489.966 263.442 478.712 229.682 481.437Z" fill="black"/>
<path d="M392.581 497.783C393.055 504.654 393.529 511.406 393.766 512.709C393.884 514.012 394.121 516.144 394.24 517.447C394.358 519.816 395.187 519.816 471.591 519.816H548.942V530.477C548.942 536.281 548.823 541.493 548.705 541.967C548.468 542.322 546.336 542.085 543.848 541.493C529.041 537.11 512.458 543.507 506.772 555.826C505.232 559.143 503.573 561.749 503.1 561.867C502.626 561.867 501.441 560.09 500.494 557.958C497.177 549.903 487.108 542.796 476.684 541.019C465.786 539.124 448.61 540.19 439.608 543.388C418.523 550.851 407.98 568.382 408.336 595.627C408.454 615.646 412.955 629.86 425.63 650.827L430.487 659H456.31H482.252L479.053 653.314C477.276 650.234 475.144 646.918 474.315 645.97C471.946 643.127 460.693 622.161 460.693 620.621C460.693 619.792 460.219 618.725 459.745 618.133C457.968 616.119 455.599 603.089 455.836 596.574C456.073 583.9 460.693 578.214 470.761 578.214C480.475 578.214 482.252 583.544 483.318 616.83L483.555 624.648L504.284 624.411L525.014 624.056L525.369 615.764C527.028 581.649 527.383 580.702 536.978 578.451C542.071 577.385 547.757 580.346 548.468 584.611C548.705 586.032 548.942 603.445 548.942 623.108L548.823 659H572.04H595.139V589.349V519.816L604.023 519.579C608.88 519.579 613.855 519.342 615.158 519.342C617.172 519.224 617.29 518.394 616.461 505.838C615.632 494.23 615.276 488.781 614.803 485.819C614.684 485.346 564.578 485.109 503.218 485.109L391.752 485.227L392.581 497.783Z" fill="black"/>
</svg>
