<svg width="667" height="667" viewBox="0 0 667 667" fill="none" xmlns="http://www.w3.org/2000/svg">
    <g clip-path="url(#clip0_346_2)">
        <path
            d="M25.066 0.933301C27.466 1.19997 31.066 1.19997 33.066 0.933301C35.066 0.666634 33.066 0.399967 28.666 0.399967C24.266 0.399967 22.666 0.666634 25.066 0.933301Z"
            fill="white" />
        <path
            d="M86.6667 3.99982C86.6667 13.4665 89.4667 16.6665 118.667 41.5998C126.533 48.3998 129.2 51.5998 131.067 56.7998C133.333 62.7998 133.333 63.5998 131.467 67.5998C128.933 73.0665 122.133 77.3331 116.267 77.3331C104.667 77.3331 95.0667 67.1998 87.2 46.6665C81.8667 32.9332 76.6667 26.6665 67.2 21.8665C62.8 19.7332 59.6 19.3332 46 19.5998C29.3333 19.9998 16.9333 17.9998 5.73333 13.1998L0 10.7998V17.3332V23.8665L7.73333 26.6665C18.1333 30.6665 27.6 31.8665 42.8 30.9332C54.4 30.3998 56.4 30.6665 62 33.3332C69.0667 36.7998 71.7333 40.5332 76.9333 53.9998C81.0667 64.9332 88.6667 76.7998 94.1333 80.7998C108.8 91.3331 118.933 91.0665 131.467 79.5998C139.733 71.9998 144 64.7998 144 58.3998C144 52.2665 137.333 41.1998 129.867 35.1998C109.733 18.3998 99.2 8.26649 98 4.26649C96.9333 0.399818 96.2667 -0.000183105 91.7333 -0.000183105C86.9333 -0.000183105 86.6667 0.266487 86.6667 3.99982Z"
            fill="white" />
        <path
            d="M237.867 6.93301C239.467 19.1997 246.134 25.333 257.867 25.333C267.867 25.333 274.8 19.8663 283.867 4.93301L286.934 -0.000326157H280.134C275.334 -0.000326157 273.334 0.533007 273.334 1.73301C273.334 2.66634 271.2 5.99967 268.534 9.06634C264.534 13.8663 263.067 14.6663 258.8 14.6663C253.2 14.6663 249.334 11.4663 249.334 7.06634C249.334 1.46634 247.867 -0.000326157 242.4 -0.000326157H236.934L237.867 6.93301Z"
            fill="white" />
        <path
            d="M302.933 7.06641C293.333 18.6664 291.333 25.7331 291.333 46.6664C291.467 66.2664 290.667 62.9331 304.533 99.9998C307.067 106.933 310.667 116.8 312.533 121.866C316.933 133.733 317.067 140 312.8 144.933L309.467 148.666L303.333 145.466C296.933 142.133 288 130.4 282.667 118.266C278.267 108.266 262.8 81.3331 252.533 65.8664C238.8 44.9331 220.267 27.0664 203.333 18.2664C197.867 15.4664 183.6 12.7997 179.467 13.8664C171.067 15.9998 161.333 29.8664 161.333 39.5998C161.467 47.9998 165.6 54.3997 183.6 74.1331C223.467 118 237.333 137.6 252.4 171.466C263.067 195.2 266.8 200.133 288 216.666C304.133 229.333 308 233.733 308 239.6C308 242.4 307.333 245.466 306.4 246.4C303.467 249.333 291.467 248.133 275.6 243.466C256.933 238 248.133 236.666 236.667 238C227.067 238.933 221.067 242.266 216.4 249.066C212.4 255.066 210.4 265.066 211.867 272.8C214.667 287.333 239.733 303.733 269.333 310.133C289.467 314.4 290.933 315.066 290.4 319.6C290.133 322.266 288.533 324.133 284.667 326.4C279.867 329.2 278.133 329.466 267.867 328.8C248.667 327.733 230.4 321.866 215.6 311.733C200.667 301.6 197.6 300.666 176.667 300.666C163.067 300.666 152.933 301.6 139.467 303.866C123.467 306.533 119.6 306.8 112.133 305.6C101.733 303.866 79.4667 293.2 70.9333 286C60.9333 277.333 48.4 256.266 41.8667 236.8C38.4 226.533 37.6 211.866 40.2667 206C43.4667 198.8 53.2 200.533 64 210.266C71.8667 217.333 74.5333 222.133 79.8667 238.4C84.8 253.6 87.0667 258.133 93.8667 265.066C100.933 272.666 105.067 274.666 112.933 274.666C120.933 274.666 126.667 271.333 131.467 264C134.533 259.333 135.333 256.133 136.4 244.933L137.733 231.333L131.867 214C126.533 198.4 126 195.466 126 184C126 173.6 126.533 170.533 128.667 166.666C131.2 162.533 132.133 162 137.867 161.6C145.867 161.066 154.667 165.066 159.6 171.466C161.867 174.533 164.533 181.866 167.6 193.733C174.133 218.933 179.867 226.666 191.733 226.666C199.467 226.666 203.333 224.8 209.867 218C216.533 211.2 219.6 203.466 220.8 190.666C222 178.666 216.8 159.866 207.6 142.133C196.667 121.066 175.867 101.466 164.4 101.333C162.8 101.333 158.933 102.4 155.733 103.866C137.2 111.733 133.733 112.4 116.4 111.466C95.0667 110.4 94.2667 110.8 86.1333 126.533C81.8667 134.8 78.1333 140 74.2667 143.2C62 153.2 54.6667 153.2 28.9333 143.466C23.8667 141.466 15.4667 139.6 9.86667 139.066L0 138.266V143.6V148.933L8.93333 150.4C14 151.2 23.3333 154.133 30 156.666C36.6667 159.333 45.3333 161.866 49.3333 162.266C64.9333 163.733 81.7333 152.666 91.2 134.666C97.3333 122.933 98.9333 122.133 110.533 123.866C122.267 125.733 132.933 124 146.533 118C158.667 112.666 163.6 112.266 171.467 116.133C185.6 122.933 202.533 149.6 208.8 174.8C212.4 189.6 212.4 195.733 208.4 205.6C203.067 219.066 187.867 219.733 182.933 206.666C182.267 204.8 180 196.666 178 188.666C173.867 171.6 170.267 164.666 162.267 158.133C151.733 149.6 139.067 147.066 131.067 151.866C122 157.466 114.667 173.6 114.667 187.866C114.667 195.333 118 210.133 121.6 218.666C125.733 228.533 127.333 240.8 125.733 251.6C123.6 266.266 119.867 268.533 108.933 261.333C101.067 256 95.7333 247.6 89.4667 230.266C86.6667 222.533 82.8 213.466 80.8 210.133C65.8667 184.666 37.6 182.266 29.8667 205.733C28.1333 210.933 27.8667 215.2 28.4 224.533C29.3333 239.866 32.8 250.933 41.2 265.333C55.3333 289.733 62.2667 296.533 83.7333 307.2C106.133 318.4 117.067 319.466 146.667 313.333C154.667 311.733 166.133 310.4 173.333 310.266C187.867 310.133 190.4 310.933 210.4 323.066C225.333 332.133 233.333 335.2 248.933 338.133C265.867 341.333 278.8 340.266 289.6 334.933C294.267 332.666 299.467 329.333 301.2 327.466C304.8 323.6 307.867 315.333 306.933 311.733C305.867 307.6 297.467 302.933 289.333 302C271.2 299.866 242.933 289.866 233.2 282.4C231.067 280.666 227.6 278 225.6 276.4C223.2 274.533 221.067 271.2 220 267.6C217.867 259.866 220.667 254 227.733 251.066C234.667 248.133 253.467 249.466 266.667 253.866C298 264 320 258.4 320 240.266C320 228.8 315.6 223.2 294.133 206.533C277.333 193.6 271.067 185.866 263.867 168.933C249.467 135.2 236 116 194.267 68.9331C184.533 58.1331 175.6 47.3331 174.4 44.9331C171.467 39.5998 171.467 34.3997 174 29.3331C176.4 24.5331 181.467 24.1331 191.6 27.4664C207.2 32.6664 228.933 51.0664 240.533 68.6664C243.467 73.0664 246.933 78.3997 248.4 80.3997C252.933 87.1998 266.267 111.2 274 126.666C285.467 149.466 297.467 160.533 307.733 158C313.733 156.533 319.6 151.066 323.333 143.333C326.4 137.333 326.933 134.666 326.4 128.933C325.733 122 318 100.266 313.333 92.6664C312 90.3998 308.933 82.9331 306.533 75.9998C302.533 64.6664 302.133 61.8664 302.133 48.6664C302 36.5331 302.533 32.6664 305.067 26.3997C308.133 18.9331 316.533 8.66641 324.667 2.93307L328.667 0.133087H318.667H308.667L302.933 7.06641Z"
            fill="white" />
        <path
            d="M377.067 2.39981C376.134 3.73315 370.267 8.26648 364.001 12.6665C341.734 28.1331 335.334 35.0665 330.534 48.9332C326.801 59.7332 326.667 79.1998 330.267 86.2665C333.467 92.3998 338.001 95.8665 344.267 96.7998C359.467 99.3332 367.467 91.4665 374.001 67.7332C376.534 58.5331 382.534 51.1998 390.267 47.7332C393.601 46.2665 401.734 44.6665 409.601 43.9998C417.201 43.3332 430.801 41.1998 440.001 39.1998C468.001 33.3332 486.134 34.6665 488.667 42.6665C490.667 49.1998 484.001 51.7332 459.601 54.1331C420.934 57.7332 413.201 63.0665 399.467 95.4665C390.801 116.133 385.867 125.333 378.401 135.6C370.267 146.8 356.134 156 341.601 159.6C325.867 163.466 321.334 168.666 321.334 183.333C321.334 193.867 323.734 199.867 330.134 204.666C344.267 215.466 362.667 215.733 373.201 205.466C376.001 202.8 382.001 193.6 386.667 184.933C399.334 161.333 406.801 156 426.934 156C442.667 156.133 450.667 162.533 450.667 175.066C450.667 184.667 443.867 189.2 424.401 192.533C407.201 195.333 403.334 197.733 397.867 208C395.734 211.867 395.334 215.6 395.334 229.066V245.6L391.467 248.666C384.401 254.267 377.334 255.333 365.334 252.666C352.934 249.867 341.734 250.4 339.201 254C338.134 255.333 336.401 259.066 335.201 262.267C333.067 267.6 333.067 268.4 335.334 274C337.201 279.067 340.401 282.4 352.534 292.533C382.667 317.867 407.601 330.667 426.534 330.667C443.334 330.667 459.334 315.2 460.934 297.467C461.867 287.333 460.134 284.4 443.467 269.067C427.734 254.4 425.201 249.2 428.667 238.8C430.401 233.2 432.001 231.333 436.534 228.666C439.601 226.933 445.334 224.8 449.334 223.867C458.801 222 468.534 216.666 472.401 211.466C474.134 209.2 477.734 203.6 480.401 199.2C485.734 190.4 494.001 182.133 499.734 179.733C501.734 178.933 510.401 178.4 519.201 178.533C539.867 178.8 547.201 176.8 555.867 168.266C564.534 159.867 566.801 152.933 563.067 145.733C559.201 138.266 549.467 131.466 537.601 128.133C529.334 125.6 522.134 124.933 497.467 124C464.534 122.8 461.867 122.133 450.401 113.733C445.601 110.266 443.467 107.6 441.467 102.133C438.134 92.9332 438.934 89.7332 445.201 87.9998C452.667 85.8665 462.267 86.3998 484.401 89.9998C495.601 91.7332 510.267 93.5998 516.801 93.9998C523.334 94.3998 536.801 95.7332 546.667 96.9332C582.401 101.066 598.134 95.7332 606.001 76.9332C609.334 68.7998 608.667 65.5998 601.734 58.6665L595.334 52.3998L579.467 51.4665C554.801 49.9998 547.734 46.5331 534.801 28.7998C523.467 13.5998 521.734 11.7332 512.401 5.46649L504.134 -0.000183105H441.467C382.801 -0.000183105 378.667 0.133148 377.067 2.39981ZM416.934 10.7998C435.601 14.5331 451.334 14.5331 461.867 10.7998C485.601 2.39981 508.134 11.5998 527.734 37.7332C541.201 55.7332 549.201 60.2665 571.601 62.7998C596.401 65.4665 602.801 71.9998 591.467 82.6665C588.267 85.5998 586.401 85.9998 574.934 86.3998C567.734 86.6665 557.334 86.2665 552.001 85.3332C546.534 84.5332 533.867 83.3332 524.001 82.6665C514.134 81.9998 498.801 80.1332 490.001 78.5332C481.201 77.0665 467.734 75.5998 460.001 75.4665C447.734 75.3332 445.334 75.7332 440.401 78.3998C433.467 81.9998 430.934 85.7332 429.867 93.5998C428.001 107.466 437.067 121.2 453.734 129.2C463.467 134 475.867 135.733 506.667 136.533C530.267 137.2 542.267 140 549.201 146.533C553.734 150.666 554.134 152.8 551.867 157.867C549.067 163.867 543.467 165.333 523.067 165.333C506.001 165.333 504.001 165.6 497.867 168.666C488.801 173.2 480.534 181.466 471.601 195.066C463.467 207.6 458.934 210.933 448.001 212.666C430.267 215.466 415.601 231.6 415.467 248.133C415.334 257.733 419.601 264.4 433.601 276.667C446.001 287.333 449.334 292.4 449.334 299.867C449.334 317.067 435.734 324.4 415.601 318C401.201 313.333 379.201 300 362.001 285.6C344.401 271.067 342.001 268.133 343.334 264C344.667 259.733 350.134 259.333 359.601 262.667C374.667 268 388.934 264.667 399.067 253.466C405.467 246.267 407.201 239.6 406.001 224.666C404.801 208.533 405.734 207.333 422.134 204C445.734 199.333 456.934 191.2 460.001 176.666C462.134 166.266 460.667 160.4 454.134 153.867C447.334 147.066 440.401 144.8 426.001 144.8C417.201 144.8 413.867 145.466 407.067 148.533C402.134 150.8 396.534 154.666 393.601 157.867C388.801 163.066 373.334 188.933 373.334 191.733C373.334 194 364.401 201.066 360.267 202C352.401 203.733 338.401 197.733 333.601 190.667C327.467 181.6 332.267 172.533 345.201 169.333C355.334 166.8 369.067 158.666 377.867 150.133C387.067 141.2 397.734 124.666 403.467 110.933C413.601 86.2665 416.267 80.5332 419.601 77.0665C425.067 71.3332 435.601 68.1331 453.201 66.6665C472.534 65.0665 480.401 63.4665 487.201 59.5998C494.401 55.5998 497.601 50.6665 498.401 42.9332C498.934 37.0665 498.534 35.9998 494.801 31.5998C492.401 28.9332 488.401 26.1331 485.734 25.1998C479.467 23.1998 452.934 24.5331 442.667 27.3332C438.667 28.3998 426.267 30.2665 415.201 31.3332C378.267 34.7998 368.134 42.2665 363.334 69.5998C360.667 85.3332 356.401 89.0665 346.134 84.7998C338.667 81.7332 336.534 69.3332 340.801 54.5331C342.667 47.9998 344.534 45.7332 360.267 30.1331C370.401 20.1331 380.001 11.9998 383.201 10.5331C390.401 7.33316 399.334 7.33316 416.934 10.7998Z"
            fill="white" />
        <path
            d="M609.867 1.86634C608.934 4.26634 612.934 17.733 616.934 25.8663C621.067 33.8663 632.801 46.533 641.334 51.9997C647.334 55.8663 661.201 61.333 664.934 61.333C666.001 61.333 666.667 59.5997 666.667 56.2663C666.667 51.4663 666.401 51.1997 657.467 46.7997C652.534 44.3997 645.467 40.133 641.867 37.4663C634.401 31.8663 625.067 17.733 621.734 6.93301C619.601 0.39967 619.201 -0.000328064 615.067 -0.000328064C612.534 -0.000328064 610.267 0.799671 609.867 1.86634Z"
            fill="white" />
        <path
            d="M644 1.86621C644 4.53288 656.533 17.8662 662 21.1995L666.667 23.8662V16.6662C666.667 9.99954 666.267 8.93288 661.733 4.66621C657.467 0.799543 655.733 -0.000457764 650.4 -0.000457764C645.733 -0.000457764 644 0.532877 644 1.86621Z"
            fill="white" />
        <path
            d="M1.6 51.8666C0.533333 52.5333 0 54.8 0.266667 57.4666L0.666667 62L12.5333 64.2666C26.6667 67.0666 33.6 70.1333 42.1333 77.7333C52.6667 86.9333 56 92.6666 56 100.933C56 107.067 55.4667 108.667 52.4 111.467C47.2 116.4 41.7333 115.2 22.4 105.467C13.7333 100.933 5.06667 97.3333 3.2 97.3333C0.4 97.3333 0 97.8666 0 102.533V107.733L16.4 115.867C40 127.733 46.2667 128.133 56.9333 118.267C72.5333 104 71.4667 90 53.4667 71.8666C43.0667 61.6 31.3333 55.2 18.6667 53.3333C13.8667 52.5333 8.53333 51.6 6.66667 51.3333C4.8 50.9333 2.53333 51.2 1.6 51.8666Z"
            fill="white" />
        <path
            d="M637.333 90.2667C620.667 92.8 604.4 106.133 596.267 124C591.733 134.133 591.467 152.933 595.733 161.2C600.133 169.6 611.6 183.6 616.667 186.667C619.333 188.267 622.533 192.133 624.533 196.267C628.267 203.733 628.667 207.2 626.667 212.533C625.6 215.6 624.667 216 619.333 216C615.867 216 606.933 214 598.933 211.333C568.267 201.067 552.133 198.267 536 200.267C524.933 201.6 515.067 205.6 508.133 211.467C501.867 216.667 493.733 229.733 491.2 238.4C489.2 245.067 489.2 246.133 491.867 256.4C493.333 262.4 496.4 272 498.667 277.733C503.467 290.4 503.867 299.333 499.867 309.733C496 319.733 486.533 329.6 478 332.667C474.4 334 465.067 337.733 457.467 341.2C440 348.8 433.2 355.2 416.933 379.6C404.667 398 400 402.933 387.333 410.533C382 413.867 377.733 415.333 372.533 415.733C365.867 416.267 364.8 416 361.2 412.533C358.133 409.6 357.333 407.733 357.333 403.467C357.333 394.667 362 388.4 374.933 379.333C390 368.8 393.2 365.867 396.267 358.933C399.467 351.733 398.667 347.333 392.4 340.133C381.733 327.6 371.733 327.467 353.333 339.467C340.667 347.733 338.667 348.267 321.333 347.867C294.667 347.2 287.867 347.6 276.667 351.2C264.4 355.067 253.333 361.333 243.867 369.867C236.667 376.4 222.667 384 218 384C216.4 384 214 382.667 212.533 381.2C210.267 378.667 210 376.533 210.267 363.467C210.8 340.8 207.6 334.4 191.6 325.867L182 320.667H164.667H147.333L136 326.133C124.533 331.6 101.6 349.2 98.6666 354.667C95.0666 361.333 81.0666 375.867 75.7333 378.533C62.4 384.933 50.9333 384.8 22.3999 378.133C-2.13339 372.4 -5.28656e-05 372.4 -5.28656e-05 378.267V383.333L22.7999 388.533C49.2 394.667 59.3333 395.067 71.2 390.533C81.3333 386.8 90.6666 379.067 100.4 366.267C109.867 353.733 119.2 346.533 134.667 339.867C145.2 335.2 162.533 330.667 169.733 330.667C176.667 330.667 186.4 334.8 191.2 339.6C197.333 346 198.667 350.8 198.667 366.933C198.667 388 202.8 394.667 216.133 394.667C224 394.667 226.8 393.2 249.2 378.133C275.733 360.4 286.667 358 322.8 362.133C332.267 363.2 337.6 361.467 349.067 353.733C360.667 345.867 365.2 344 372.933 344C381.333 344 385.333 346.8 385.333 352.533C385.333 357.6 380.667 362.533 367.867 371.067C359.067 376.8 345.867 390.267 344 395.333C339.067 408.267 349.333 425.333 363.2 427.333C372 428.667 385.333 424.267 396.667 416.267C408.667 407.733 409.2 407.067 425.2 383.067C434.267 369.333 440.533 361.333 444.267 358.533C452 352.8 466.267 346.4 480.133 342.133C494.8 337.6 500.933 332.533 507.333 319.6C514.933 304 516.267 289.6 511.067 277.333C498.933 248.8 500 232.267 514.8 219.467C523.333 212.133 531.333 210 549.333 210.133C564.667 210.267 564.933 210.4 586.667 218C613.6 227.6 623.067 228.8 629.867 223.467C635.733 219.067 638.667 212.533 638.667 204C638.667 194.8 634.667 188.4 622 176.933C616.4 171.867 610.133 164.667 608 160.933C604.533 154.8 604 152.667 604 143.333C604 126.667 610.8 114.667 624.4 106.8C635.867 100.267 644.8 100.133 663.733 106C666.533 106.933 666.667 106.533 666.667 100.933V94.9333L658.4 92.9333C648.667 90.4 642 89.6 637.333 90.2667Z"
            fill="white" />
        <path
            d="M654.534 142.266C648.934 145.2 646.667 147.333 644.401 152C642.667 155.2 641.334 159.733 641.334 162C641.467 166.666 646.001 175.866 655.201 189.6C658.801 194.933 662.401 200.933 663.201 202.933C665.601 209.333 666.667 207.066 666.667 195.333C666.667 184 666.667 183.866 660.667 175.066C650.801 160.8 650.934 154.266 661.067 150.666C666.267 148.933 666.667 148.4 666.667 143.733C666.667 137.466 664.667 137.2 654.534 142.266Z"
            fill="white" />
        <path
            d="M0 219.6V250L2.8 246.667C4.26667 244.8 7.06667 240 9.06667 236C15.2 223.467 13.4667 205.067 5.06667 192.933C3.6 190.933 1.86667 189.333 1.2 189.333C0.533333 189.333 0 201.733 0 219.6Z"
            fill="white" />
        <path
            d="M544 237.6C535.733 241.866 530.533 250.4 529.733 261.866C528.8 273.066 531.466 278.533 544.8 293.466C550.4 299.6 556 306.133 557.066 308C563.333 318 569.333 321.6 579.866 321.6C588.266 321.6 597.866 317.866 602.266 312.933C605.466 309.466 608 302.4 608 297.2C608 292.266 611.866 291.6 630.133 293.2C640.8 294.133 647.466 294.133 655.333 292.933L666 291.333L666.4 286.533L666.8 281.733L640.4 281.6C625.866 281.6 612.133 282.133 609.733 282.8C602.933 284.933 598.666 291.066 598.666 298.533C598.666 306.4 596 310.266 589.333 312C578.8 314.8 572.933 310.133 547.6 277.466C539.866 267.6 538 258.666 542.533 253.2C544.933 250.266 546.133 250 556.266 250.133C565.866 250.133 570 251.066 588 256.933C626.8 269.866 645.733 269.333 661.466 255.066C666 250.933 666.666 249.6 666.666 244.533C666.666 241.333 666.133 238.666 665.333 238.666C664.666 238.666 664 239.2 664 239.866C664 240.533 661.466 243.466 658.533 246.533C646.933 258.133 631.333 258.666 605.6 248.533C568.133 233.733 556 231.6 544 237.6Z"
            fill="white" />
        <path
            d="M2.93333 280.8C1.06667 282.133 0 284.133 0 286.8C0 290.4 0.266667 290.666 5.73333 290.666C14 290.8 21.0667 294.533 31.7333 304.666C36.9333 309.733 45.6 316.8 50.9333 320.533C58 325.6 61.0667 328.666 62.5333 332.4C64 336.4 64 337.733 62.6667 339.333C60.2667 342.266 41.8667 341.866 26.6667 338.666C19.8667 337.066 11.2 336 7.46667 336.266L0.666667 336.666V341.333V346L10 346.8C15.2 347.2 24.1333 348.666 30 350C42.4 352.666 60 353.066 66.8 350.8C77.7333 347.2 80.9333 337.333 74.9333 325.066C72.4 320 69.2 316.933 58.2667 309.066C50.8 303.733 41.0667 296.266 36.5333 292.4C22.9333 280.666 9.73333 276 2.93333 280.8Z"
            fill="white" />
        <path
            d="M598.667 336.133C585.601 339.2 578.534 342.4 572.267 348.4C566.934 353.467 561.334 363.867 561.334 368.667C561.334 376.8 571.067 389.2 579.601 392.133C587.467 394.667 605.201 392.933 621.334 387.867C633.601 384.133 637.334 383.6 650.934 383.467L666.667 383.333V378.133V373.067L647.067 373.6C634.267 374.133 625.467 375.067 622.001 376.267C619.067 377.467 610.267 379.067 602.534 380C589.201 381.6 588.134 381.467 582.134 378.933C577.334 376.8 575.467 374.933 573.867 371.2C570.667 363.733 572.401 359.333 580.401 354C592.801 346 599.334 344.8 635.067 344.8L666.667 344.667V340.667V336.533L655.601 334.933C638.801 332.533 612.134 333.067 598.667 336.133Z"
            fill="white" />
        <path
            d="M145.867 356.533C136.667 360.8 132.267 366.666 119.867 391.2C107.467 415.466 102.133 422 90.2667 427.466C83.3333 430.666 80.2667 431.333 71.3333 431.333C61.3333 431.2 59.7333 430.8 46 424.4C27.8667 415.866 23.3333 414.666 10.4 414.666H0V420V425.333H8.4C19.0667 425.333 24 426.8 42.6667 435.066C57.4667 441.733 58.4 442 70.1333 442C81.3333 442 82.8 441.733 92.4 436.933C107.867 429.333 113.733 422.4 126.667 397.466C132.533 385.866 139.333 374.266 141.467 371.6C151.733 359.066 172 363.866 172 378.667C172 384.266 166.933 391.2 148.933 410.533C137.067 423.066 134.8 428.266 134.667 441.866C134.667 450.133 135.2 453.333 137.467 456.8C143.333 466.4 156.533 470 174.133 466.666C194.267 462.8 206.4 455.733 228 434.666C244.4 418.8 257.733 409.6 272.533 403.866C290.933 396.8 303.733 397.333 312.8 405.733C318.533 411.066 320.267 418.666 316.667 422.666C313.467 426.133 303.733 428.8 286.667 430.8C269.333 432.8 260.4 435.733 249.867 442.933C239.067 450.133 233.333 459.2 233.333 468.933C233.333 481.867 239.067 484.4 265.333 483.2L282 482.266L286.4 486C290 489.066 290.667 490.533 290.667 495.333C290.667 503.867 289.867 505.066 280.8 509.733C273.467 513.466 271.333 513.867 257.733 514.4C246.133 514.8 241.333 514.4 235.733 512.666C228 510.133 206 499.466 197.733 494.266C185.733 486.666 178.133 484 168.533 484C157.867 484 155.333 485.333 149.333 494C141.467 505.466 143.2 517.867 154 528.8C160.133 534.933 162.667 540.8 162.667 548.933C162.667 554.933 160.267 560.533 156.8 562.933C156 563.466 151.467 564.266 146.667 564.666C123.6 566.666 110.8 571.733 96.4 584.4C85.7333 593.733 82 598.8 75.0667 613.333C67.7333 628.533 56.6667 643.867 49.0667 649.467C46 651.6 40.2667 654.4 36.2667 655.467C25.0667 658.8 17.3333 655.467 17.3333 647.333C17.3333 641.6 20.8 637.467 33.0667 628.8C46.6667 619.333 55.8667 610 61.4667 600.4C72.6667 581.2 73.8667 571.466 66.9333 557.2C56.8 536.266 37.4667 523.6 22 527.867C19.3333 528.533 13.2 531.733 8.53333 534.8C0.533333 540.133 0 540.8 0 545.6V550.666L6.4 545.733C18 536.933 24.5333 535.466 34.2667 539.867C46.6667 545.6 58.1333 560.933 59.6 573.733C60.1333 578.4 59.3333 581.6 55.4667 590.133C49.6 602.533 45.4667 607.333 32 616.267C17.6 626 9.73333 634 7.2 641.6C4.4 650.133 5.73333 655.067 12.2667 661.467L17.6 666.667H28.9333C42.5333 666.667 47.6 664.4 59.0667 653.467C69.3333 643.733 76.8 633.2 85.2 616.4C93.0667 600.533 97.4667 595.2 108.533 587.6C118.8 580.666 126.4 577.867 138 576.8C155.467 575.066 157.467 574.533 162.8 569.733C177.467 556.533 177.867 541.466 164.267 524.667C156.267 514.8 154.667 511.867 154.667 507.066C154.667 498.533 163.733 493.466 174.533 495.867C177.6 496.533 189.067 502 200.133 508C211.2 514 224.533 520.4 229.867 522.266C241.2 526.133 256.4 527.466 267.333 525.466C284.267 522.4 300.133 510.933 302.133 500.533C303.2 494.8 297.2 481.333 291.2 476C285.467 471.066 281.2 470.4 264 471.733C249.333 472.933 244.933 472.266 243.6 468.8C241.733 464.133 247.733 454.933 255.067 451.066C262.667 447.2 283.867 441.6 299.333 439.466C308 438.266 317.333 436.266 319.867 434.933C332.4 428.8 335.6 410.933 326.667 396.933C323.2 391.466 321.867 390.533 313.867 388C305.467 385.466 304.4 385.466 294.667 387.2C275.6 390.933 254.133 401.2 240.8 413.2C237.067 416.533 229.2 423.2 223.467 428C217.6 432.8 210.8 438.533 208.133 440.8C196 451.2 180.667 456.666 163.6 456.666C152 456.666 151.733 456.666 147.867 452.266C144.533 448.666 144 446.8 144 440.533C144 430.666 146.8 425.6 160.8 410.533C180.267 389.466 184.267 381.733 181.467 370.933C177.2 355.333 161.867 349.066 145.867 356.533Z"
            fill="white" />
        <path
            d="M487.6 362.133C478 364.4 473.2 366.933 466.533 372.933C459.733 379.066 457.333 384 450.666 404.4C444 424.8 440.4 429.866 426.266 438.666C416.533 444.666 410.133 447.466 389.2 455.2C372.666 461.2 352.133 479.2 344.933 493.867C333.333 517.466 345.466 549.733 364.533 546.133C372.533 544.666 384.933 531.733 392.8 517.066C401.2 500.933 408.666 492.933 418.533 489.2C425.466 486.533 427.333 486.4 447.333 487.333C459.066 488 471.6 488.266 475.2 488.133C490.666 487.466 501.333 478.133 501.333 465.066C501.333 460.133 500.266 457.866 493.333 448.666C484.533 437.066 482 430.4 483.066 421.733C484.4 409.466 490.133 406.533 502.4 412.266C508.8 415.333 520 425.333 520 428.133C520 428.933 521.066 431.2 522.533 433.066C523.866 435.066 526.4 440.8 528.133 446C530.666 453.733 531.2 458.133 531.333 471.333C531.333 486.933 531.2 487.466 527.2 494C524.133 499.2 520.8 502.133 512.666 507.066C506.933 510.533 500 514 497.466 514.666C494.8 515.466 482.133 516.666 469.333 517.333C455.066 518 443.333 519.333 439.333 520.533C424.933 525.066 412 539.066 398.133 565.2C388.4 583.6 384 588.933 375.066 592.8C368.666 595.733 366.8 595.867 353.733 595.066C335.333 594.133 328 596 315.866 605.2C300.133 617.067 296.666 622.133 281.2 655.333C278.8 660.4 276.533 665.067 276.266 665.6C276 666.267 278.4 666.667 281.6 666.667C287.066 666.533 287.466 666.267 289.866 660.933C306.8 623.6 311.2 617.733 328.4 611.333C336.666 608.267 340.4 607.733 355.333 607.466C375.733 606.933 379.733 605.466 389.6 594.933C397.066 586.933 402.666 578.267 411.2 561.867C414.533 555.2 419.466 547.333 422 544.266C431.733 533.066 446.266 528.133 469.333 528.133C495.2 528.133 512.266 522.266 526.933 507.733C538.533 496.533 541.733 488.4 542.4 469.733C542.933 457.2 542.533 453.2 540 445.066C535.733 431.066 529.733 420.4 521.066 411.6C504.266 394.667 488.266 394.266 476.933 410.4C472.933 416.4 472.666 417.333 472.8 428.4C472.8 439.466 473.066 440.4 477.333 446.4C488.266 461.6 490.666 465.867 490.666 469.466C490.666 476.133 488 476.666 452.666 476.666C421.466 476.666 420.533 476.8 414 479.867C403.733 484.933 393.466 496.133 386.266 510.133C382.8 516.8 377.866 524.533 375.466 527.466C370.266 533.466 362.4 538 359.333 536.8C358.133 536.4 355.733 532.933 354 529.066C346.533 513.2 351.066 495.6 366.4 481.066C375.066 472.8 379.2 470.4 398.533 462.666C441.066 445.733 451.066 435.6 462.666 397.866C467.066 383.6 469.466 380.4 479.733 375.6C487.866 371.733 489.866 371.333 501.333 371.333C512.933 371.333 514.8 371.733 522.666 375.6C532.4 380.4 536.666 385.2 548.266 404.667C561.866 427.6 575.066 437.466 595.066 439.466C604.533 440.4 622.666 437.733 634.933 433.466C638.8 432.133 645.333 430.266 649.333 429.466C667.733 425.2 666.666 425.866 666.666 419.866C666.666 414.533 666.666 414.4 662.4 415.333C655.733 416.666 638.933 421.333 630.666 424.133C622.133 426.933 609.6 429.333 602.666 429.333C596.533 429.333 580 423.733 574.266 419.733C568.533 415.6 566.266 412.933 559.733 402C550.4 386.4 540.4 373.6 533.733 368.8C522.533 360.666 504.4 358 487.6 362.133Z"
            fill="white" />
        <path
            d="M0 453.866V459.6L11.0667 460.266C20.9333 460.8 23.4667 461.466 34.8 467.066C41.7333 470.4 53.3333 477.733 60.6667 483.333C77.8667 496.266 82.2667 498.8 96.8 503.2C103.333 505.333 110.4 507.866 112.4 508.933C118.267 511.866 121.867 523.066 119.2 530C118 532.933 106.4 538.666 101.6 538.666C90.2667 538.666 78.4 530.8 67.6 516.266C55.0667 499.333 46.8 490.533 40.6667 487.866C32.8 484.266 12.5333 484.4 5.33333 488C0.133333 490.666 0 490.8 0 498V505.2L4.8 502C14.6667 495.333 26.2667 494.266 36.6667 499.2C44.1333 502.666 47.4667 506 56.5333 518.933C72 540.933 83.7333 549.333 99.0667 549.333C108.533 549.333 114.533 546.8 122.133 539.333C130 531.866 131.733 525.466 128.667 515.2C124.8 501.866 117.067 495.866 95.7333 490C91.3333 488.8 83.8667 484.933 77.7333 480.933C72 476.933 62.4 470.4 56.4 466.266C36.5333 452.666 24.4 448 9.06667 448H0V453.866Z"
            fill="white" />
        <path
            d="M652.667 451.467C639.6 457.2 628.133 459.867 616 460C594.533 460.133 579.2 465.867 568.4 477.867C556.667 491.067 553.467 500.667 552.133 527.467C551.2 544.4 550.8 546.933 547.733 552.133C541.333 562.933 533.333 568 522.8 568C519.333 568 514.933 566 507.333 561.333C485.2 547.733 480.4 545.467 471.2 543.867C458.267 541.733 452.267 543.6 443.467 552.4C434.933 561.067 428 573.867 428 580.933C428 583.867 428.933 588.933 430.133 592.4C434.4 605.067 445.467 609.333 461.333 604.133C475.867 599.467 481.067 600.133 498 608.8C514.933 617.333 526.8 619.733 539.067 617.2C548.667 615.067 551.867 613.2 562.933 603.2C568.267 598.4 574 593.867 575.733 593.2C583.867 590 594.4 593.2 609.2 603.2C622 612 631.067 609.733 653.333 592.4C666.533 582.133 666.667 582 666.667 576.4C666.667 573.2 666.133 570.667 665.6 570.667C664.933 570.667 658.8 575.333 651.867 580.933C639.6 591.067 629.333 597.333 624.8 597.333C622 597.333 614.8 593.733 611.333 590.667C605.867 585.733 593.2 580 587.467 580C578.133 580 573.867 582.133 562.4 592.267C548 605.067 540.667 607.733 525.467 605.6C517.467 604.533 512.4 602.667 501.333 596.933C482.267 586.933 480.267 586.667 464.133 592C451.733 596 450.8 596.133 446.267 594.267C442.4 592.533 441.2 591.2 440 586.667C438.933 582.667 438.933 579.867 439.867 576.933C442.267 570.133 447.733 561.867 452.133 558.133C455.733 555.067 457.467 554.667 465.733 554.667C476.533 554.667 479.467 555.867 501.333 569.733C511.733 576.4 515.2 578 521.067 578.4C530.667 579.2 538.933 575.867 547.867 567.467C560 555.867 562.4 549.333 563.867 523.2C565.467 496.933 569.867 488.133 587.2 477.067C593.467 472.933 594.267 472.8 613.2 472C630.267 471.2 633.733 470.667 641.333 467.467C656 461.2 659.2 460.133 663.067 460C666.667 460 666.8 459.733 666.4 454.267C665.867 447.2 663.6 446.667 652.667 451.467Z"
            fill="white" />
        <path
            d="M658.667 499.6C654.533 504 648.933 510.933 646.267 515.066C641.2 522.666 630.8 530.4 628 528.666C627.333 528.266 624.933 525.2 622.667 522C617.2 514.133 610.533 510.133 604.4 511.066C598.4 512.133 594.133 516.133 589.6 524.666C586.667 530.133 586 533.066 586 541.466C586.133 550.4 586.533 552.4 590 558.133C598.267 571.466 613.6 578.8 627.067 576C638.267 573.733 650.133 567.333 658.8 559.2C665.733 552.533 666.667 550.933 666.667 546.4C666.667 543.6 666.4 541.333 665.867 541.333C665.467 541.333 662 544.8 658 549.066C647.867 560 635.2 565.866 623.333 565.066C613.733 564.533 606.667 560.533 600.533 552.533C597.467 548.533 596.667 546 596.267 538.666C595.733 530.266 596 529.333 599.6 525.333C604.667 519.6 608.133 520.666 613.6 529.466C624.533 547.333 640.533 542.133 660.533 514.133C666.267 506 666.8 504.8 666.4 498.4L666 491.6L658.667 499.6Z"
            fill="white" />
        <path
            d="M302 545.467C278.133 553.2 268.533 554.933 255.333 554C248.267 553.467 239.733 551.733 234.533 549.867C219.867 544.533 208.667 546.133 203.467 553.867C200.267 558.8 200.8 563.2 205.6 572C209.867 579.467 209.867 579.867 207.6 582.4C205.6 584.533 202.933 585.067 193.467 585.6C179.867 586.267 175.733 588.267 173.333 595.333C172 599.333 172.133 600.8 174.533 605.733C176.133 608.8 180.667 615.2 184.667 620C192 628.533 193.333 632.4 190.667 637.333C190 638.667 187.6 640.267 185.467 641.067C182.267 642.267 180 641.733 171.2 637.733C145.467 626.4 140.667 625.067 129.6 625.6C107.733 626.8 90.1332 641.333 87.3332 660.267L86.5332 666.667H91.7332C96.7999 666.667 97.0665 666.4 97.9999 661.733C99.3332 654.533 103.333 647.333 107.867 644.133C123.733 632.8 139.2 633.467 164.533 646.4C181.2 654.8 191.6 653.333 199.6 641.467C204.933 633.6 203.2 624.8 194.8 616.667C190.133 612.267 184 602.533 184 599.6C184 597.2 188.8 596 198.4 596.133C204 596.267 206.533 595.467 210.667 592.667C220.933 585.467 222 580.667 216 569.333C211.2 560.4 211.067 558.933 215.333 557.867C219.467 556.8 223.867 557.6 234 561.333C240 563.6 246 564.533 258 564.933C276 565.733 282.933 564.4 302.933 556.533C316.533 551.2 323.867 550.8 329.467 554.8C333.733 557.733 334.667 563.2 331.733 566.933C328.133 571.6 298.133 583.867 274 590.667C266 592.933 256.533 596 253.067 597.333C233.6 604.933 228.267 618.4 234.667 643.333C236.133 649.067 237.333 656.667 237.333 660.267V666.667H243.333H249.333V658.933C249.333 654.8 248.133 646.4 246.667 640.267C242.533 623.333 242.933 618.933 249.067 613.067C254.933 607.2 265.067 602.4 277.2 599.333C282 598.133 289.6 596.267 294 595.2C298.4 594 307.467 590.533 314.267 587.333C337.067 576.533 342.667 570.8 342.667 558C342.667 552.4 342 551.067 337.467 546.533C332.4 541.467 332.133 541.333 323.2 541.467C316.933 541.6 310.133 542.8 302 545.467Z"
            fill="white" />
        <path
            d="M4.66667 568.133C1.06667 571.333 0 573.333 0 576.8V581.467L4 579.333C6.13333 578.267 10.2667 577.333 13.3333 577.333C17.7333 577.333 18.9333 577.867 20.2667 580.667C23.0667 586.8 19.7333 593.6 9.33333 602.933C0.533333 610.8 0 611.733 0 617.067C0 622.4 0.133333 622.667 2.8 621.333C8.13333 618.4 25.6 600.667 28.2667 595.333C32 588.267 32.1333 576.8 28.8 571.6C23.0667 563.067 12.2667 561.467 4.66667 568.133Z"
            fill="white" />
        <path
            d="M654.8 620.8C649.467 625.733 644.133 631.867 642.8 634.533C639.067 641.733 637.867 655.6 640.533 661.733C642.4 666.533 642.8 666.667 649.2 666.667C652.933 666.667 656 666.4 656 666C656 665.733 654.8 663.467 653.333 661.067C651.467 658 650.667 654.267 650.667 648.8C650.667 639.6 653.467 634.267 661.467 628C666.133 624.267 666.667 623.2 666.667 617.867C666.667 614.667 666.133 612 665.467 612C664.8 612 660 616 654.8 620.8Z"
            fill="white" />
        <path
            d="M450.667 624.666C445.734 626.4 440.667 626.533 423.334 625.866C408.401 625.333 399.334 625.6 393.334 626.666C381.734 628.933 363.201 636.133 349.334 643.733C343.067 647.066 336.267 650.8 334.001 651.866C331.867 652.933 325.867 656.533 320.667 659.866L311.334 666L320.267 666.4L329.201 666.8L346.267 656.8C355.734 651.333 368.934 644.933 376.001 642.4L388.667 638H417.334C439.467 638 447.734 637.466 453.334 635.866C464.667 632.533 474.667 634.266 496.667 643.2C519.867 652.533 529.734 654.533 540.001 651.733C566.534 644.4 568.667 644 576.667 644.8C588.934 646.133 596.534 649.866 601.334 657.066C603.467 660.4 605.334 663.866 605.334 664.933C605.334 666.133 607.334 666.666 612.134 666.666C618.534 666.666 618.801 666.533 617.867 663.6C614.134 651.2 605.601 640.133 596.934 636.666C593.734 635.333 586.134 634 579.201 633.6C568.134 633.066 565.601 633.466 552.801 637.333C532.667 643.466 527.601 642.933 502.001 632.133C482.934 624 481.334 623.6 469.334 623.2C460.401 622.8 454.934 623.333 450.667 624.666Z"
            fill="white" />
        <path
            d="M466.934 663.867C458.4 666.133 461.067 666.667 480.134 666.533C494.667 666.533 498.534 666.133 496 665.067C491.6 663.333 472.4 662.533 466.934 663.867Z"
            fill="white" />
        <path
            d="M384 665.333C382.666 666.133 388.933 666.533 402.666 666.533C417.333 666.4 421.733 666 418 665.2C410.533 663.733 386.4 663.733 384 665.333Z"
            fill="white" />
    </g>
    <defs>
        <clipPath id="clip0_346_2">
            <rect width="666.667" height="666.667" fill="white" />
        </clipPath>
    </defs>
</svg>